<?xml version="1.0" encoding="UTF-8"?>
<svg width="64" height="64" viewBox="0 0 64 64" fill="none" xmlns="http://www.w3.org/2000/svg">
  <!-- Background -->
  <rect width="64" height="64" rx="8" fill="#121212"/>
  
  <!-- Gradient overlay -->
  <rect width="64" height="64" rx="8" fill="url(#paint0_radial)"/>
  
  <!-- Neural network nodes -->
  <circle cx="16" cy="16" r="3" fill="#8B5CF6" />
  <circle cx="32" cy="12" r="3" fill="#8B5CF6" />
  <circle cx="48" cy="16" r="3" fill="#8B5CF6" />
  
  <circle cx="12" cy="32" r="3" fill="#8B5CF6" />
  <circle cx="32" cy="32" r="3" fill="#8B5CF6" />
  <circle cx="52" cy="32" r="3" fill="#8B5CF6" />
  
  <circle cx="16" cy="48" r="3" fill="#8B5CF6" />
  <circle cx="32" cy="52" r="3" fill="#8B5CF6" />
  <circle cx="48" cy="48" r="3" fill="#8B5CF6" />
  
  <!-- Neural network connections -->
  <line x1="16" y1="16" x2="32" y2="12" stroke="#8B5CF6" stroke-width="1" />
  <line x1="32" y1="12" x2="48" y2="16" stroke="#8B5CF6" stroke-width="1" />
  
  <line x1="16" y1="16" x2="12" y2="32" stroke="#8B5CF6" stroke-width="1" />
  <line x1="16" y1="16" x2="32" y2="32" stroke="#8B5CF6" stroke-width="1" />
  <line x1="32" y1="12" x2="32" y2="32" stroke="#8B5CF6" stroke-width="1" />
  <line x1="48" y1="16" x2="32" y2="32" stroke="#8B5CF6" stroke-width="1" />
  <line x1="48" y1="16" x2="52" y2="32" stroke="#8B5CF6" stroke-width="1" />
  
  <line x1="12" y1="32" x2="16" y2="48" stroke="#8B5CF6" stroke-width="1" />
  <line x1="12" y1="32" x2="32" y2="32" stroke="#8B5CF6" stroke-width="1" />
  <line x1="32" y1="32" x2="16" y2="48" stroke="#8B5CF6" stroke-width="1" />
  <line x1="32" y1="32" x2="32" y2="52" stroke="#8B5CF6" stroke-width="1" />
  <line x1="32" y1="32" x2="48" y2="48" stroke="#8B5CF6" stroke-width="1" />
  <line x1="52" y1="32" x2="32" y2="32" stroke="#8B5CF6" stroke-width="1" />
  <line x1="52" y1="32" x2="48" y2="48" stroke="#8B5CF6" stroke-width="1" />
  
  <line x1="16" y1="48" x2="32" y2="52" stroke="#8B5CF6" stroke-width="1" />
  <line x1="32" y1="52" x2="48" y2="48" stroke="#8B5CF6" stroke-width="1" />
  
  <!-- UK Initials -->
  <path d="M22 24V40M22 32.5L27.5 40M29 24V40" stroke="white" stroke-width="2" stroke-linecap="round" stroke-linejoin="round"/>
  <path d="M36 24V40M36 24L42 40M36 32.5H42" stroke="white" stroke-width="2" stroke-linecap="round" stroke-linejoin="round"/>
  
  <!-- Definitions for gradients -->
  <defs>
    <radialGradient id="paint0_radial" cx="0" cy="0" r="1" gradientUnits="userSpaceOnUse" gradientTransform="translate(32 32) rotate(90) scale(32)">
      <stop offset="0" stop-color="#8B5CF6" stop-opacity="0.2"/>
      <stop offset="1" stop-color="#121212" stop-opacity="0"/>
    </radialGradient>
  </defs>
</svg> 